<svg xmlns="http://www.w3.org/2000/svg" xmlns:xlink="http://www.w3.org/1999/xlink" id="eHgR2dlaBZn1" shape-rendering="geometricPrecision" text-rendering="geometricPrecision" viewBox="124.32 82.52 319.91 332.17"><g transform="matrix(.483319 0 0 0.48332 142.090502 132.267336)"><path d="M366.599,180.433L351.29,374.798c-1.032,12.958-10.033,23.737-22.189,23.737h-144.311c-12.213,0-21.099-10.722-22.189-23.737L145.688,180.433h220.911v0Z" fill="#e84f4f"/><path d="M366.599,180.433L351.348,374.798c-1.032,12.958-10.033,23.737-22.189,23.737h-73.389v-218.102h110.885-.056Z" fill="#c94545"/><path d="M160.366,146.777h64.502c0-.573-.057-1.09-.057-1.663v0c0-17.373,14.047-31.648,31.19-31.648v0c17.144,0,31.19,14.219,31.19,31.648v0c0,.573,0,1.09-.057,1.663h64.502c12.843,0,24.482,10.779,23.392,23.737l-.975,11.868h-236.048l-1.09-11.868c-1.204-13.015,10.549-23.737,23.392-23.737h.059Zm78.204,0h34.916c.057-.516.057-1.09.057-1.663v0c0-9.804-7.912-17.774-17.545-17.774v0c-9.632,0-17.545,8.027-17.545,17.774v0c0,.573,0,1.09.057,1.663h.06Z" fill="#f7f7f8"/><path d="M255.713,113.523h.286v0c17.144,0,31.19,14.219,31.19,31.648v0c0,.573,0,1.09-.057,1.663h64.502c12.843,0,24.482,10.779,23.392,23.737l-.975,11.868h-118.338v-35.605h17.774c.057-.516.057-1.09.057-1.663v0c0-9.804-7.912-17.774-17.545-17.774v0h-.286v-13.817-.057v0Z" fill="#e6e6e6"/><path d="M189.147,213.171v0c7.339,0,13.359,6.02,13.359,13.359v145.745h-26.66v-145.746c0-7.339,6.02-13.359,13.359-13.359l-.058.001v0Zm133.935,0v0c7.339,0,13.359,6.02,13.359,13.359v145.745h-26.66v-145.746c0-7.339,6.02-13.359,13.359-13.359l-.058.001v0Zm-44.664,0v0c7.339,0,13.359,6.02,13.359,13.359v145.745h-26.66v-145.746c0-7.339,6.02-13.359,13.359-13.359l-.058.001v0Zm-44.664,0v0c7.339,0,13.359,6.02,13.359,13.359v145.745h-26.66v-145.746c0-7.339,6.02-13.359,13.359-13.359l-.058.001v0Z" fill="#f7f7f8"/><path d="M323.082,213.171v0c7.339,0,13.359,6.02,13.359,13.359v145.745h-26.66v-145.746c0-7.339,6.02-13.359,13.359-13.359l-.058.001v0Zm-44.664,0v0c7.339,0,13.359,6.02,13.359,13.359v145.745h-26.66v-145.746c0-7.339,6.02-13.359,13.359-13.359l-.058.001v0Z" fill="#e3e3e3"/></g><g transform="matrix(.599363 0 0 0.599363 145.342258 69.596965)"><rect width="50" height="150" rx="0" ry="0" transform="translate(398.685712 21.565919)" fill="#afc3ea" stroke-width="0"/><rect width="150" height="50" rx="0" ry="0" transform="translate(348.685712 71.565919)" fill="#afc3ea" stroke-width="0"/></g><path d="M323.38287,127.475014h-143.901058c0,0-22.922523,5.388039-32.518549,14.984065s-14.641135,28.328427-14.641135,28.328427l-.000015,193.625c0,0,6.562942,25.527218,14.64115,32.512201s5.2494,9.760763,34.171847,9.760763c45.946248,0,114.685903,0,162.685764,0c32.479484,0,30.280469.437617,40.478849-9.760763s14.984075-6.847514,14.984075-30.927562c0-63.465032,0-146.522933,0-146.522933" fill="none" stroke="#9db4e1" stroke-width="16" stroke-linecap="round" stroke-linejoin="round"/></svg>