<svg xmlns="http://www.w3.org/2000/svg" xmlns:xlink="http://www.w3.org/1999/xlink" version="1.1" xml:space="preserve" viewBox="35.4 1.41 184.92 65.21">

<defs>
</defs>
<g style="stroke: none; stroke-width: 0; stroke-dasharray: none; stroke-linecap: butt; stroke-linejoin: miter; stroke-miterlimit: 10; fill: red; fill-rule: nonzero; opacity: 1;" transform="translate(1.4065934065934016 1.4065934065934016) scale(2.81 2.81)">
	<path d="M 68.162 10.398 H 21.838 c -5.38 0 -9.742 4.362 -9.742 9.742 v 3.065 h 65.808 V 20.14 C 77.904 14.76 73.542 10.398 68.162 10.398 z" style="stroke: none; stroke-width: 1; stroke-dasharray: none; stroke-linecap: butt; stroke-linejoin: miter; stroke-miterlimit: 10; fill: #FF8210; fill-rule: nonzero; opacity: 1;" transform=" matrix(1 0 0 1 0 0) " stroke-linecap="round"/>
	<path d="M 57.628 14.469 H 32.373 c -1.104 0 -2 -0.896 -2 -2 C 30.373 5.593 35.966 0 42.841 0 h 4.318 c 6.875 0 12.469 5.593 12.469 12.469 C 59.628 13.573 58.732 14.469 57.628 14.469 z M 34.611 10.469 H 55.39 C 54.488 6.761 51.141 4 47.159 4 h -4.318 C 38.86 4 35.512 6.761 34.611 10.469 z" style="stroke: none; stroke-width: 1; stroke-dasharray: none; stroke-linecap: butt; stroke-linejoin: miter; stroke-miterlimit: 10; fill: #FF8210; fill-rule: nonzero; opacity: 1;" transform=" matrix(1 0 0 1 0 0) " stroke-linecap="round"/>
</g>
</svg>